<?xml version="1.0" encoding="utf-8"?>
<!-- Generator: Adobe Illustrator 17.0.0, SVG Export Plug-In . SVG Version: 6.00 Build 0)  -->
<!DOCTYPE svg PUBLIC "-//W3C//DTD SVG 1.1//EN" "http://www.w3.org/Graphics/SVG/1.1/DTD/svg11.dtd">
<svg version="1.1" id="Layer_1" xmlns="http://www.w3.org/2000/svg" xmlns:xlink="http://www.w3.org/1999/xlink" x="0px" y="0px"
	 width="841.89px" height="595.28px" viewBox="0 0 841.89 595.28" style="enable-background:new 0 0 841.89 595.28;"
	 xml:space="preserve">
<style type="text/css">
	.st0{fill:#FFFFFF;}
</style>
<path class="st0" d="M431.833,114.65c-43.609,0-79.088,35.479-79.088,79.09c0,43.609,35.479,79.088,79.088,79.088
	c43.61,0,79.09-35.479,79.09-79.088C510.923,150.129,475.444,114.65,431.833,114.65z M473.674,132.064
	c-0.051,0.191-0.085,0.387-0.085,0.595v115.508l-83.624-116.083c11.943-8.136,26.36-12.899,41.869-12.899
	C447.33,119.185,461.737,123.94,473.674,132.064z M390.398,255.687l0-0.002v-88.47l64.153,90.071c0.425,0.639,1.066,0.96,1.921,0.96
	c0.639,0,1.224-0.24,1.76-0.72c0.532-0.48,0.8-1.04,0.8-1.679c0-0.32-0.908-1.84-2.721-4.56c-1.815-2.72-4.24-6.239-7.278-10.559
	c-3.04-4.32-6.507-9.224-10.4-14.718c-3.895-5.492-7.919-11.119-12.079-16.879c-4.159-5.758-8.266-11.491-12.318-17.198
	c-4.055-5.704-7.787-10.904-11.199-15.598c-3.415-4.693-6.295-8.664-8.64-11.919c-2.347-3.252-3.895-5.411-4.639-6.479
	c-0.618-0.744-1.286-1.119-2.005-1.119c-0.514,0-1.03,0.267-1.544,0.8c-0.516,0.535-0.77,1.067-0.77,1.599v92.838
	c-17.148-13.671-28.159-34.73-28.159-58.315c0-23.881,11.288-45.174,28.807-58.828l86.944,120.932
	c-11.811,7.861-25.978,12.449-41.198,12.449C416.511,268.293,402.256,263.645,390.398,255.687z M478.543,251.8l-0.151-116.244
	c17.054,13.675,27.995,34.674,27.995,58.183C506.388,217.18,495.511,238.123,478.543,251.8z"/>
<g>
	<path class="st0" d="M86.778,317.128v25.819c0,0.585-0.496,1.081-1.082,1.081c-0.586,0-1.082-0.496-1.082-1.081v-28.929
		c-0.135-0.45,0-0.9,0.406-1.216c0.496-0.315,1.216-0.226,1.532,0.27l19.105,26.495v-25.684c0-0.586,0.496-1.081,1.082-1.081
		c0.631,0,1.126,0.495,1.126,1.081v29.063c0,0.585-0.496,1.081-1.126,1.081c-0.36,0-0.631-0.135-0.856-0.405
		c-0.045-0.045-0.135-0.091-0.18-0.181L86.778,317.128z"/>
	<path class="st0" d="M135.177,333.034c0-6.128,4.776-11.085,10.724-11.085c5.678,0,10.184,4.506,10.634,10.273v0.045v0.136
		c0,0.586-0.496,0.991-1.082,0.991H137.34c0.225,4.821,4.01,8.471,8.561,8.471c2.929,0,5.632-1.532,7.12-4.01
		c0.315-0.541,0.991-0.631,1.442-0.36c0.496,0.36,0.676,0.991,0.36,1.531c-1.893,3.02-5.182,5.002-8.922,5.002
		C139.954,344.028,135.177,339.072,135.177,333.034z M137.476,331.276h16.717c-0.721-4.146-4.235-7.164-8.291-7.164
		C141.756,324.112,138.287,327.086,137.476,331.276z"/>
	<path class="st0" d="M181.232,323.076c0-0.631,0.496-1.082,1.126-1.082c0.541,0,1.037,0.451,1.037,1.082v4.866
		c0.09-0.181,0.18-0.36,0.315-0.541c1.667-2.613,4.596-5.407,8.832-5.407c0.585,0,1.081,0.451,1.081,1.082
		c0,0.585-0.496,1.081-1.081,1.081c-2.884,0-4.867,1.622-6.398,3.604c-1.487,1.982-2.343,4.235-2.659,5.137
		c-0.09,0.181-0.09,0.271-0.09,0.36v9.688c0,0.631-0.496,1.081-1.037,1.081c-0.631,0-1.126-0.45-1.126-1.081V323.076z"/>
	<path class="st0" d="M250.628,330.961c-0.091-3.739-3.064-6.849-6.85-6.849c-3.739,0-6.804,3.109-6.804,6.849v12.031v0.135
		c0,0.045-0.045,0.09-0.045,0.09v0.091c-0.09,0.271-0.315,0.45-0.541,0.586c-0.18,0.09-0.36,0.135-0.541,0.135h-0.135h-0.09
		c-0.045,0-0.09-0.045-0.09-0.045c-0.09,0-0.18-0.09-0.271-0.136c-0.045,0-0.09-0.045-0.135-0.09l-0.135-0.135
		c-0.045-0.045-0.045-0.091-0.09-0.091c0-0.045,0-0.045-0.045-0.09c0,0,0-0.045-0.045-0.09c0-0.045,0-0.09-0.045-0.136v-0.135v-0.09
		v-12.031c0-3.739-3.019-6.849-6.804-6.849c-3.785,0-6.804,3.109-6.804,6.849v12.031c0,0.36-0.18,0.676-0.496,0.855
		c-0.045,0.046-0.18,0.136-0.27,0.136c-0.045,0.045-0.09,0.045-0.181,0.045h-0.135h-0.135c-0.406-0.045-0.766-0.405-0.901-0.812
		v-0.225v-12.031v-0.36v-7.57c0-0.585,0.496-1.036,1.037-1.036c0.631,0,1.081,0.451,1.081,1.036v2.118
		c1.623-1.938,4.056-3.154,6.804-3.154c3.424,0,6.354,1.893,7.885,4.687c1.577-2.794,4.551-4.687,7.93-4.687
		c4.957,0,8.967,4.011,8.967,8.967v12.031c0,0.54-0.45,1.036-1.081,1.036c-0.586,0-1.036-0.496-1.036-1.036V330.961z"/>
	<path class="st0" d="M279.968,315.821c0-0.586,0.496-1.081,1.082-1.081c0.631,0,1.126,0.495,1.126,1.081v1.036
		c0,0.631-0.495,1.172-1.126,1.172c-0.586,0-1.082-0.541-1.082-1.172V315.821z M279.968,323.03c0-0.63,0.496-1.081,1.082-1.081
		c0.631,0,1.126,0.451,1.126,1.081v19.917c0,0.585-0.495,1.081-1.126,1.081c-0.586,0-1.082-0.496-1.082-1.081V323.03z"/>
	<path class="st0" d="M326.382,330.961c0-3.739-3.019-6.804-6.804-6.804c-3.74,0-6.759,3.064-6.849,6.804v11.986v0.18
		c-0.045,0.181-0.091,0.36-0.226,0.496c-0.181,0.271-0.496,0.405-0.812,0.405h-0.27c-0.315-0.09-0.586-0.315-0.722-0.586
		c-0.045-0.045-0.045-0.09-0.045-0.135s-0.045-0.091-0.045-0.091v-0.27v-11.986v-0.36v-7.524c0-0.586,0.45-1.082,1.081-1.082
		c0.586,0,1.037,0.496,1.037,1.082v2.117c1.622-1.938,4.1-3.199,6.849-3.199c4.957,0,8.967,4.056,8.967,8.967v11.986
		c0,0.631-0.496,1.081-1.081,1.081c-0.586,0-1.082-0.45-1.082-1.081V330.961z"/>
	<path class="st0" d="M402.135,312.036c8.426,0,15.05,7.165,15.095,15.996c-0.045,8.832-6.669,15.996-15.095,15.996
		c-8.517,0-15.186-7.164-15.23-15.996C386.95,319.201,393.619,312.036,402.135,312.036z M402.135,341.82
		c6.938,0,12.797-6.083,12.842-13.788c-0.045-7.795-5.903-13.743-12.842-13.743c-7.165,0-13.022,5.948-13.022,13.743
		C389.113,335.737,394.97,341.82,402.135,341.82z"/>
	<path class="st0" d="M442.604,339.433c0.36-0.451,1.037-0.541,1.532-0.136c1.532,1.127,3.965,2.568,6.759,2.568
		c1.713,0,3.199-0.54,4.19-1.352c1.082-0.721,1.667-1.712,1.667-2.703c-0.045-1.037-0.45-1.758-1.576-2.704
		c-0.946-0.721-2.523-1.262-4.687-1.622l-0.09-0.045c-1.983-0.36-3.74-0.812-5.002-1.712c-1.396-0.812-2.388-2.253-2.388-3.966
		c0-1.757,0.991-3.289,2.388-4.325c1.307-0.901,3.154-1.487,5.407-1.487c2.839,0,4.866,1.307,6.578,2.389
		c0.496,0.36,0.631,1.036,0.315,1.531c-0.315,0.496-0.991,0.631-1.486,0.315c-1.622-1.081-3.244-2.208-5.407-2.208
		c-1.803,0-3.244,0.496-4.19,1.262c-0.901,0.722-1.397,1.622-1.397,2.523s0.406,1.532,1.262,2.208
		c0.991,0.676,2.479,1.217,4.506,1.532h0.091c2.117,0.315,3.83,0.946,5.361,1.803c1.442,0.945,2.479,2.658,2.479,4.506
		c0,1.847-1.036,3.334-2.523,4.461c-1.531,1.126-3.334,1.757-5.497,1.757c-3.56-0.045-6.354-1.712-8.155-3.154
		C442.288,340.469,442.243,339.883,442.604,339.433z"/>
	<path class="st0" d="M515.92,330.961c-0.091-3.739-3.064-6.849-6.85-6.849c-3.739,0-6.804,3.109-6.804,6.849v12.031v0.135
		c0,0.045-0.045,0.09-0.045,0.09v0.091c-0.09,0.271-0.315,0.45-0.541,0.586c-0.18,0.09-0.36,0.135-0.54,0.135h-0.136h-0.09
		c-0.045,0-0.09-0.045-0.09-0.045c-0.091,0-0.181-0.09-0.271-0.136c-0.045,0-0.091-0.045-0.136-0.09l-0.135-0.135
		c-0.045-0.045-0.045-0.091-0.09-0.091c0-0.045,0-0.045-0.046-0.09c0,0,0-0.045-0.045-0.09c0-0.045,0-0.09-0.045-0.136v-0.135v-0.09
		v-12.031c0-3.739-3.019-6.849-6.804-6.849s-6.804,3.109-6.804,6.849v12.031c0,0.36-0.181,0.676-0.496,0.855
		c-0.045,0.046-0.18,0.136-0.271,0.136c-0.045,0.045-0.09,0.045-0.18,0.045h-0.136h-0.135c-0.405-0.045-0.766-0.405-0.901-0.812
		v-0.225v-12.031v-0.36v-7.57c0-0.585,0.496-1.036,1.036-1.036c0.631,0,1.082,0.451,1.082,1.036v2.118
		c1.622-1.938,4.055-3.154,6.804-3.154c3.425,0,6.354,1.893,7.886,4.687c1.576-2.794,4.551-4.687,7.93-4.687
		c4.957,0,8.967,4.011,8.967,8.967v12.031c0,0.54-0.45,1.036-1.081,1.036c-0.586,0-1.036-0.496-1.036-1.036V330.961z"/>
	<path class="st0" d="M563.733,323.03v19.917c0,0.585-0.496,1.081-1.081,1.081c-0.586,0-1.082-0.496-1.082-1.081v-3.29
		c-1.893,2.614-4.911,4.371-8.291,4.371c-5.812,0-10.453-5.002-10.453-11.039c0-6.038,4.641-11.04,10.453-11.04
		c3.38,0,6.398,1.712,8.291,4.326v-3.245c0-0.63,0.496-1.081,1.082-1.081C563.237,321.949,563.733,322.4,563.733,323.03z
		 M561.57,332.989c0-4.957-3.74-8.922-8.291-8.922c-4.506,0-8.291,3.965-8.291,8.922c0,4.956,3.785,8.876,8.291,8.876
		C557.83,341.865,561.57,337.945,561.57,332.989z"/>
	<path class="st0" d="M606.454,330.961c0-3.739-3.019-6.804-6.804-6.804c-3.74,0-6.759,3.064-6.849,6.804v11.986v0.18
		c-0.045,0.181-0.091,0.36-0.226,0.496c-0.181,0.271-0.496,0.405-0.812,0.405h-0.27c-0.315-0.09-0.586-0.315-0.722-0.586
		c-0.045-0.045-0.045-0.09-0.045-0.135s-0.045-0.091-0.045-0.091v-0.27v-11.986v-0.36v-7.524c0-0.586,0.45-1.082,1.081-1.082
		c0.586,0,1.037,0.496,1.037,1.082v2.117c1.622-1.938,4.1-3.199,6.849-3.199c4.957,0,8.967,4.056,8.967,8.967v11.986
		c0,0.631-0.496,1.081-1.081,1.081c-0.586,0-1.082-0.45-1.082-1.081V330.961z"/>
	<path class="st0" d="M654.854,323.03v19.917c0,0.585-0.496,1.081-1.082,1.081c-0.585,0-1.081-0.496-1.081-1.081v-3.29
		c-1.893,2.614-4.911,4.371-8.291,4.371c-5.812,0-10.453-5.002-10.453-11.039c0-6.038,4.641-11.04,10.453-11.04
		c3.38,0,6.398,1.712,8.291,4.326v-3.245c0-0.63,0.496-1.081,1.081-1.081C654.357,321.949,654.854,322.4,654.854,323.03z
		 M652.69,332.989c0-4.957-3.74-8.922-8.291-8.922c-4.506,0-8.291,3.965-8.291,8.922c0,4.956,3.785,8.876,8.291,8.876
		C648.95,341.865,652.69,337.945,652.69,332.989z"/>
	<path class="st0" d="M703.116,342.271c0,5.722-4.641,10.363-10.408,10.363c-1.622,0-3.154-0.405-4.597-1.036
		c-0.45-0.315-0.721-0.946-0.45-1.442c0.271-0.586,0.901-0.811,1.442-0.495c1.126,0.54,2.253,0.811,3.604,0.811
		c4.596,0,8.246-3.649,8.246-8.2v-2.704c-1.848,2.658-4.867,4.326-8.246,4.326c-5.768,0-10.364-4.912-10.364-10.995
		c0-5.947,4.597-10.949,10.364-10.949c3.379,0,6.398,1.712,8.246,4.326v-3.245c0-0.585,0.495-1.081,1.126-1.081
		c0.541,0,1.036,0.496,1.036,1.081V342.271z M700.954,332.898c0-4.911-3.695-8.786-8.246-8.786c-4.506,0-8.201,3.875-8.201,8.786
		c0,4.957,3.695,8.877,8.201,8.877C697.259,341.775,700.954,337.855,700.954,332.898z"/>
	<path class="st0" d="M731.645,315.821c0-0.586,0.496-1.081,1.082-1.081c0.631,0,1.126,0.495,1.126,1.081v1.036
		c0,0.631-0.495,1.172-1.126,1.172c-0.586,0-1.082-0.541-1.082-1.172V315.821z M731.645,323.03c0-0.63,0.496-1.081,1.082-1.081
		c0.631,0,1.126,0.451,1.126,1.081v19.917c0,0.585-0.495,1.081-1.126,1.081c-0.586,0-1.082-0.496-1.082-1.081V323.03z"/>
	<path class="st0" d="M760.711,332.943c0-6.128,5.047-10.994,11.355-10.994c2.613,0,5.091,0.901,7.029,2.434
		c0.45,0.315,0.54,0.991,0.135,1.486c-0.36,0.406-0.991,0.541-1.487,0.181c-1.577-1.262-3.56-1.982-5.677-1.982
		c-5.137,0-9.192,4.01-9.192,8.876c0,4.957,4.056,8.922,9.192,8.922c2.117,0,4.1-0.721,5.677-1.938
		c0.496-0.36,1.127-0.225,1.487,0.181c0.405,0.495,0.315,1.171-0.226,1.577c-1.848,1.441-4.325,2.343-6.938,2.343
		C765.758,344.028,760.711,339.162,760.711,332.943z"/>
</g>
</svg>
