<?xml version="1.0" encoding="utf-8"?>
<!-- Generator: Adobe Illustrator 17.0.0, SVG Export Plug-In . SVG Version: 6.00 Build 0)  -->
<!DOCTYPE svg PUBLIC "-//W3C//DTD SVG 1.1//EN" "http://www.w3.org/Graphics/SVG/1.1/DTD/svg11.dtd">
<svg version="1.1" id="Layer_1" xmlns="http://www.w3.org/2000/svg" xmlns:xlink="http://www.w3.org/1999/xlink" x="0px" y="0px"
	 width="66.942px" height="39.669px" viewBox="0 0 66.942 39.669" style="enable-background:new 0 0 66.942 39.669;"
	 xml:space="preserve">
<g>
	<path d="M60.206,10.208H6.568c-1.608,0-2.911-1.303-2.911-2.911s1.303-2.911,2.911-2.911h53.638c1.608,0,2.911,1.303,2.911,2.911
		S61.814,10.208,60.206,10.208z"/>
</g>
<g>
	<path d="M60.206,22.532H6.568c-1.608,0-2.911-1.303-2.911-2.911s1.303-2.911,2.911-2.911h53.638c1.608,0,2.911,1.303,2.911,2.911
		S61.814,22.532,60.206,22.532z"/>
</g>
<g>
	<path d="M60.206,34.855H6.568c-1.608,0-2.911-1.303-2.911-2.911c0-1.608,1.303-2.911,2.911-2.911h53.638
		c1.608,0,2.911,1.303,2.911,2.911C63.117,33.552,61.814,34.855,60.206,34.855z"/>
</g>
</svg>
